<svg width="320" height="128" viewBox="0 0 320 128" fill="none" xmlns="http://www.w3.org/2000/svg">
<path d="M73.597 26.1573C65.6536 26.1936 57.927 28.7514 51.5309 33.4618C45.1348 38.1723 40.3997 44.7922 38.0082 52.3671C35.6167 59.942 35.6924 68.0807 38.2243 75.6098C40.7563 83.139 45.6136 89.6696 52.0962 94.2603C58.5788 98.8511 66.3517 101.265 74.2944 101.153C82.2371 101.042 89.9393 98.4111 96.2905 93.6403C102.642 88.8695 107.314 82.2052 109.634 74.608C111.953 67.0108 111.801 58.8732 109.198 51.3683L102.112 53.826C104.194 59.8299 104.316 66.34 102.461 72.4178C100.605 78.4955 96.8671 83.827 91.7861 87.6436C86.7051 91.4603 80.5434 93.5648 74.1892 93.654C67.8351 93.7431 61.6167 91.8122 56.4307 88.1397C51.2446 84.4671 47.3587 79.2426 45.3331 73.2193C43.3076 67.1959 43.247 60.685 45.1602 54.6251C47.0734 48.5651 50.8615 43.2692 55.9784 39.5009C61.0952 35.7325 67.2766 33.6863 73.6313 33.6572L73.597 26.1573Z" fill="white"/>
<path d="M73.4837 19.8952C64.2082 19.9376 55.1857 22.9243 47.7169 28.4248C40.2481 33.9252 34.7189 41.6553 31.9264 50.5005C29.1339 59.3458 29.2222 68.8494 32.1788 77.6412C35.1353 86.433 40.8073 94.0589 48.3771 99.4195C55.9469 104.78 65.0233 107.599 74.2981 107.468C83.5728 107.338 92.5666 104.266 99.983 98.6955C107.399 93.1247 112.855 85.3427 115.564 76.4714C118.273 67.6 118.094 58.0977 115.055 49.3343L106.781 52.2042C109.212 59.2149 109.355 66.8168 107.188 73.9138C105.021 81.0109 100.656 87.2365 94.7232 91.6932C88.79 96.1499 81.595 98.6074 74.1752 98.7115C66.7554 98.8156 59.4942 96.5609 53.4384 92.2724C47.3826 87.9839 42.845 81.8832 40.4798 74.8497C38.1145 67.8163 38.0438 60.2134 40.2779 53.1372C42.5119 46.061 46.9353 39.8769 52.9103 35.4766C58.8853 31.0762 66.1033 28.6868 73.5237 28.6529L73.4837 19.8952Z" fill="white"/>
<path d="M99.0388 47.556L88.8628 84.1H82.0148L75.0388 61.892L68.0628 84.1H61.2148L50.9748 47.556H59.8068L65.1828 71.364L70.7508 51.78C71.3908 48.964 72.8414 47.556 75.1028 47.556C76.1694 47.556 77.0228 47.8973 77.6628 48.58C78.3028 49.2627 78.8361 50.3293 79.2628 51.78L84.8948 71.364L90.2708 47.556H99.0388Z" fill="white"/>
<path d="M139.277 52.9C137.869 52.9 136.674 52.452 135.693 51.556C134.711 50.66 134.221 49.5293 134.221 48.164C134.221 46.756 134.711 45.6253 135.693 44.772C136.674 43.876 137.869 43.428 139.277 43.428C140.685 43.428 141.879 43.876 142.861 44.772C143.842 45.6253 144.333 46.756 144.333 48.164C144.333 49.5293 143.842 50.66 142.861 51.556C141.879 52.452 140.685 52.9 139.277 52.9ZM131.917 88.1V86.884L132.877 86.628C133.73 86.372 134.306 85.988 134.605 85.476C134.903 84.964 135.074 84.2813 135.117 83.428V71.652C135.117 70.3293 135.117 69.1133 135.117 68.004C135.117 66.852 135.095 65.6787 135.053 64.484C135.053 63.6307 134.882 62.9693 134.541 62.5C134.242 61.988 133.666 61.6467 132.813 61.476L131.917 61.284V60.132L143.117 56.42L143.885 57.124L143.693 66.212V83.492C143.693 84.3453 143.842 85.028 144.141 85.54C144.482 86.052 145.058 86.436 145.869 86.692L146.573 86.884V88.1H131.917ZM166.055 88.1V86.884L167.015 86.564C167.869 86.3507 168.445 85.988 168.743 85.476C169.085 84.964 169.255 84.2813 169.255 83.428V64.676C169.213 63.7373 169.042 63.0333 168.743 62.564C168.445 62.052 167.869 61.7107 167.015 61.54L166.055 61.284V60.132L176.487 56.42L177.255 57.124L177.831 62.756V63.204C178.471 62.0093 179.282 60.9 180.263 59.876C181.245 58.852 182.311 58.02 183.463 57.38C184.615 56.74 185.767 56.42 186.919 56.42C188.541 56.42 189.757 56.8467 190.567 57.7C191.378 58.5533 191.783 59.6413 191.783 60.964C191.783 62.4147 191.378 63.524 190.567 64.292C189.757 65.0173 188.775 65.38 187.623 65.38C185.917 65.38 184.445 64.612 183.207 63.076L183.079 62.948C182.653 62.436 182.162 62.1587 181.607 62.116C181.095 62.0307 180.583 62.2867 180.071 62.884C179.645 63.3107 179.239 63.8227 178.855 64.42C178.514 64.9747 178.194 65.636 177.895 66.404V83.172C177.895 83.9827 178.066 84.6653 178.407 85.22C178.749 85.732 179.325 86.0947 180.135 86.308L182.055 86.884V88.1H166.055ZM225.57 56.42C228.258 56.42 230.562 56.9747 232.482 58.084C234.402 59.1933 235.874 60.7293 236.898 62.692C237.965 64.612 238.498 66.8307 238.498 69.348C238.498 69.9027 238.477 70.436 238.434 70.948C238.392 71.4173 238.306 71.8653 238.178 72.292H218.914C218.957 76.6867 219.768 79.844 221.346 81.764C222.968 83.684 225.314 84.644 228.386 84.644C230.52 84.644 232.248 84.3027 233.57 83.62C234.893 82.8947 236.109 81.892 237.218 80.612L238.242 81.572C236.962 83.9187 235.213 85.7533 232.994 87.076C230.818 88.356 228.216 88.996 225.186 88.996C222.157 88.996 219.49 88.356 217.186 87.076C214.882 85.796 213.069 83.9613 211.746 81.572C210.466 79.14 209.826 76.2387 209.826 72.868C209.826 69.3693 210.573 66.404 212.066 63.972C213.602 61.54 215.565 59.684 217.954 58.404C220.386 57.0813 222.925 56.42 225.57 56.42ZM225.25 58.276C224.013 58.276 222.925 58.6387 221.986 59.364C221.09 60.0467 220.365 61.284 219.81 63.076C219.298 64.8253 219 67.3 218.914 70.5H230.37C230.84 66.1907 230.669 63.076 229.858 61.156C229.048 59.236 227.512 58.276 225.25 58.276ZM271.838 88.996C269.32 88.996 267.059 88.4413 265.054 87.332C263.048 86.18 261.47 84.4307 260.318 82.084C259.208 79.6947 258.654 76.6653 258.654 72.996C258.654 69.3267 259.294 66.276 260.574 63.844C261.854 61.3693 263.56 59.5133 265.694 58.276C267.827 57.0387 270.174 56.42 272.734 56.42C274.27 56.42 275.742 56.612 277.15 56.996C278.558 57.3373 279.795 57.8707 280.862 58.596V50.276C280.862 49.38 280.712 48.74 280.414 48.356C280.158 47.9293 279.603 47.6093 278.75 47.396L277.47 47.14V45.924L288.606 43.172L289.438 43.748L289.182 52.772V83.556C289.182 84.3667 289.331 85.0493 289.63 85.604C289.928 86.116 290.462 86.4787 291.23 86.692L291.934 86.884V88.1L281.31 88.804L280.734 86.116C279.582 87.012 278.259 87.716 276.766 88.228C275.272 88.74 273.63 88.996 271.838 88.996ZM275.358 86.052C277.192 86.052 278.92 85.4547 280.542 84.26V60.452C278.963 59.4707 277.256 58.98 275.422 58.98C273.331 58.98 271.539 60.0893 270.046 62.308C268.552 64.484 267.806 68.004 267.806 72.868C267.806 77.732 268.51 81.1453 269.918 83.108C271.326 85.0707 273.139 86.052 275.358 86.052Z" fill="white"/>
</svg>
